# xmcd
#
# Track frame offsets:
#	182
#	23975
#	44415
#	61795
#	78455
#	93445
#	107712
#	133597
#	150852
#
# Disc length: 2498 seconds
#
# Revision: 1
# Processed by: cddbd v1.5.2PL0 Copyright (c) Steve Scherf et al.
# Submitted via: audiograbber 1.83.01
#
DISCID=6609c009
DTITLE=Eric Andersen - Avalanche
DYEAR=1900
DGENRE=Country
TTITLE0=It´s Comin´ And It Won´t Be Long
TTITLE1=An Old Song
TTITLE2=Louise
TTITLE3=Think About It
TTITLE4=So Hard To Fall
TTITLE5=Good To Be With You
TTITLE6=We Were Foolish Like The Flowers
TTITLE7=Avalanche
TTITLE8=For What Was Gained
EXTD=
EXTT0=
EXTT1=
EXTT2=
EXTT3=
EXTT4=
EXTT5=
EXTT6=
EXTT7=
EXTT8=
PLAYORDER=
